<svg aria-hidden="true" style="position: absolute; width: 0; height: 0; overflow: hidden;" version="1.1" xmlns="http://www.w3.org/2000/svg" xmlns:xlink="http://www.w3.org/1999/xlink">
<defs>
<symbol id="icon-facebook" viewBox="0 0 32 32">
<path fill="#fff" style="fill: var(--color1, #fff)" d="M30.234 0h-28.467c-0.976 0-1.766 0.79-1.766 1.766v28.469c0 0.974 0.79 1.765 1.766 1.765h15.328v-12.392h-4.173v-4.829h4.17v-3.563c0-4.133 2.525-6.384 6.213-6.384 1.766 0 3.283 0.131 3.726 0.19v4.32h-2.557c-2.006 0-2.394 0.955-2.394 2.352v3.085h4.782l-0.624 4.829h-4.16v12.392h8.157c0.973 0 1.763-0.79 1.763-1.766v-28.467c0.002-0.976-0.789-1.766-1.765-1.766z"></path>
</symbol>
<symbol id="icon-pinterest" viewBox="0 0 32 32">
<path fill="#fff" style="fill: var(--color1, #fff)" d="M16 0c-8.835 0-16 7.163-16 16 0 6.779 4.218 12.568 10.17 14.899-0.141-1.266-0.267-3.208 0.056-4.589 0.29-1.248 1.875-7.952 1.875-7.952s-0.478-0.96-0.478-2.378c0-2.224 1.29-3.885 2.896-3.885 1.363 0 2.022 1.024 2.022 2.253 0 1.373-0.872 3.424-1.325 5.328-0.378 1.592 0.8 2.891 2.368 2.891 2.845 0 5.030-2.998 5.030-7.328 0-3.829-2.752-6.509-6.683-6.509-4.552 0-7.224 3.416-7.224 6.944 0 1.374 0.53 2.85 1.192 3.65 0.080 0.086 0.129 0.201 0.129 0.328 0 0.047-0.007 0.093-0.020 0.137l0.001-0.003-0.445 1.813c-0.070 0.293-0.232 0.357-0.536 0.214-1.998-0.93-3.248-3.851-3.248-6.198 0-5.046 3.667-9.683 10.573-9.683 5.55 0 9.864 3.957 9.864 9.242 0 5.515-3.477 9.952-8.304 9.952-1.621 0-3.144-0.84-3.666-1.837l-0.997 3.805c-0.362 1.39-1.336 3.133-1.99 4.194 1.499 0.464 3.090 0.714 4.739 0.714 8.837 0 16-7.163 16-16s-7.163-16-16-16z"></path>
</symbol>
<symbol id="icon-share" viewBox="0 0 32 32">
<path fill="#6e8098" style="fill: var(--color2, #6e8098)" d="M32 16c0 8.837-7.163 16-16 16s-16-7.163-16-16c0-8.837 7.163-16 16-16s16 7.163 16 16z"></path>
<path fill="#fff" style="fill: var(--color1, #fff)" d="M24 15.495l-6.234-6.481v3.867h-1.325c-4.111-0.001-7.441 3.158-7.441 7.055v2.049l0.589-0.612c2.001-2.079 4.833-3.264 7.802-3.264h0.375v3.867l6.234-6.481z"></path>
</symbol>
<symbol id="icon-twitter" viewBox="0 0 36 32">
<path fill="#fff" style="fill: var(--color1, #fff)" d="M35.556 4.972c-1.22 0.556-2.636 0.96-4.12 1.141l-0.070 0.007c1.51-0.913 2.644-2.315 3.194-3.984l0.015-0.052c-1.334 0.805-2.886 1.42-4.539 1.755l-0.094 0.016c-1.332-1.42-3.22-2.304-5.315-2.304-0.003 0-0.007 0-0.010 0h0.001c-4.711 0-8.171 4.395-7.108 8.956-6.077-0.313-11.422-3.201-15.005-7.584l-0.029-0.037c-0.62 1.051-0.987 2.316-0.987 3.666 0 2.521 1.277 4.743 3.219 6.056l0.026 0.016c-1.218-0.039-2.351-0.371-3.339-0.929l0.036 0.019c-0.078 3.378 2.343 6.542 5.851 7.243-0.575 0.162-1.234 0.256-1.916 0.256-0.488 0-0.964-0.048-1.425-0.139l0.046 0.008c0.959 2.922 3.635 5.006 6.807 5.067l0.007 0c-2.467 1.948-5.621 3.125-9.050 3.125-0.617 0-1.224-0.038-1.821-0.112l0.071 0.007c3.155 2.055 7.016 3.276 11.162 3.276 0.007 0 0.014 0 0.021 0h-0.001c13.543 0 21.195-11.438 20.734-21.698 1.433-1.045 2.64-2.296 3.606-3.724l0.033-0.052z"></path>
</symbol>
</defs>
</svg>
